<svg xmlns="http://www.w3.org/2000/svg" viewBox="0 0 96 96"><defs><linearGradient id="g" x1="0" y1="0" x2="1" y2="1"><stop stop-color="#39f25c"/><stop offset="1" stop-color="#f7c84b"/></linearGradient></defs><rect width="96" height="96" rx="28" fill="#050805"/><path d="M22 33 13 20l20 5M74 33l9-13-20 5" fill="#d79228" stroke="#f7c84b" stroke-width="3"/><path d="M24 35c4-16 44-16 48 0l-4 33c-6 15-34 15-40 0z" fill="url(#g)"/><path d="M36 39 29 30m31 9 7-9M34 50l-9 4m37-4 9 4" stroke="#152017" stroke-width="5" stroke-linecap="round"/><path d="M37 55c4-4 8-4 11 0m11 0c-4-4-8-4-11 0" stroke="#061008" stroke-width="4" fill="none"/><path d="M42 64h12l-6 7z" fill="#111"/><circle cx="34" cy="52" r="2.6" fill="#fff"/><circle cx="62" cy="52" r="2.6" fill="#fff"/></svg>